<svg viewBox="0 0 48 48" fill="none" xmlns="http://www.w3.org/2000/svg">
    <symbol id="wheel">
        <path d="M24 4C12.94 4 4 12.94 4 24C4 35.06 12.94 44 24 44C35.06 44 44 35.06 44 24C44 12.94 35.06 4 24 4ZM24 40C15.16 40 8 32.84 8 24C8 15.16 15.16 8 24 8C32.84 8 40 15.16 40 24C40 32.84 32.84 40 24 40Z"/>
    </symbol>

    <symbol id="history">
        <path d="M26 6C21.2261 6 16.6477 7.89642 13.2721 11.2721C9.89642 14.6477 8 19.2261 8 24H2L9.78 31.78L9.92 32.06L18 24H12C12 16.26 18.26 10 26 10C33.74 10 40 16.26 40 24C40 31.74 33.74 38 26 38C22.14 38 18.64 36.42 16.12 33.88L13.28 36.72C14.9468 38.396 16.929 39.7255 19.1121 40.6317C21.2953 41.5379 23.6362 42.0029 26 42C30.7739 42 35.3523 40.1036 38.7279 36.7279C42.1036 33.3523 44 28.7739 44 24C44 19.2261 42.1036 14.6477 38.7279 11.2721C35.3523 7.89642 30.7739 6 26 6ZM24 16V26L32.56 31.08L34 28.66L27 24.5V16H24Z" />
    </symbol>

    <symbol id="library">
        <path d="M8 12H4V40C4 42.2 5.8 44 8 44H36V40H8V12ZM40 4H16C13.8 4 12 5.8 12 8V32C12 34.2 13.8 36 16 36H40C42.2 36 44 34.2 44 32V8C44 5.8 42.2 4 40 4ZM40 32H16V8H40V32ZM20 18H36V22H20V18ZM20 24H28V28H20V24ZM20 12H36V16H20V12Z"/>
    </symbol>

    <symbol id="person">
       <path d="M24 8.75C24.6894 8.75 25.3721 8.8858 26.0091 9.14963C26.646 9.41347 27.2248 9.80018 27.7123 10.2877C28.1998 10.7752 28.5865 11.354 28.8504 11.9909C29.1142 12.6279 29.25 13.3106 29.25 14C29.25 14.6894 29.1142 15.3721 28.8504 16.0091C28.5865 16.646 28.1998 17.2248 27.7123 17.7123C27.2248 18.1998 26.646 18.5865 26.0091 18.8504C25.3721 19.1142 24.6894 19.25 24 19.25C22.6076 19.25 21.2723 18.6969 20.2877 17.7123C19.3031 16.7277 18.75 15.3924 18.75 14C18.75 12.6076 19.3031 11.2723 20.2877 10.2877C21.2723 9.30312 22.6076 8.75 24 8.75V8.75ZM24 31.25C31.425 31.25 39.25 34.9 39.25 36.5V39.25H8.75V36.5C8.75 34.9 16.575 31.25 24 31.25V31.25ZM24 4C18.475 4 14 8.475 14 14C14 19.525 18.475 24 24 24C29.525 24 34 19.525 34 14C34 8.475 29.525 4 24 4ZM24 26.5C17.325 26.5 4 29.85 4 36.5V44H44V36.5C44 29.85 30.675 26.5 24 26.5Z" />
    </symbol>
</svg>
